<svg width="470" height="80" viewBox="0 0 470 80" fill="none" xmlns="http://www.w3.org/2000/svg">
<path d="M167.524 64V17.8H171.55L192.67 53.836H190.558L211.48 17.8H215.506V64H210.82V25.126H211.942L192.67 58.126H190.36L170.956 25.126H172.21V64H167.524ZM234.915 38.458H259.335V42.616H234.915V38.458ZM235.443 59.776H263.229V64H230.559V17.8H262.239V22.024H235.443V59.776ZM274.71 64V17.8H278.736L310.614 57.928H308.502V17.8H313.32V64H309.294L277.482 23.872H279.594V64H274.71ZM337.375 64V22.024H321.139V17.8H358.495V22.024H342.259V64H337.375ZM370.653 38.458H395.073V42.616H370.653V38.458ZM371.181 59.776H398.967V64H366.297V17.8H397.977V22.024H371.181V59.776ZM410.448 64V17.8H414.474L435.594 53.836H433.482L454.404 17.8H458.43V64H453.744V25.126H454.866L435.594 58.126H433.284L413.88 25.126H415.134V64H410.448Z" fill="#333333"/>
<path d="M6.93 64V17.8H12.342L42.9 55.75H40.062V17.8H46.662V64H41.25L10.692 26.05H13.53V64H6.93ZM53.4945 64L74.4165 17.8H80.9505L101.939 64H95.0085L76.3305 21.496H78.9705L60.2925 64H53.4945ZM62.4045 52.45L64.1865 47.17H90.1905L92.1046 52.45H62.4045Z" fill="#333333"/>
<circle cx="130.5" cy="40.5" r="23" stroke="#333333" stroke-width="9"/>
<rect x="145.412" y="18.621" width="9" height="51.4944" transform="rotate(45 145.412 18.621)" fill="#333333"/>
</svg>
